<?xml version="1.0" encoding="UTF-8"?>
<svg width="250px" height="250px" viewBox="0 0 250 250" version="1.1" xmlns="http://www.w3.org/2000/svg" xmlns:xlink="http://www.w3.org/1999/xlink">
    <!-- Generator: Sketch 63.1 (92452) - https://sketch.com -->
    <title>SWAPZ</title>
    <desc>Created with Sketch.</desc>
    <g id="Page-1" stroke="none" stroke-width="1" fill="none" fill-rule="evenodd">
        <g id="SWAPZ" transform="translate(32.000000, 40.000000)">
            <path d="M93.5,2 C119.181241,2 140,22.8187591 140,48.5 C140,74.1812409 119.181241,95 93.5,95 C67.8187591,95 47,74.1812409 47,48.5 C47,22.8187591 67.8187591,2 93.5,2 Z M93.5,15 C74.9984609,15 60,29.9984609 60,48.5 C60,67.0015391 74.9984609,82 93.5,82 C112.001539,82 127,67.0015391 127,48.5 C127,29.9984609 112.001539,15 93.5,15 Z" id="Combined-Shape" fill="#458DCC"></path>
            <circle id="Oval" stroke="#20333B" stroke-width="6" cx="93.5" cy="48.5" r="48.5"></circle>
            <g id="Group" transform="translate(27.000000, 31.000000)" stroke="#20333B" stroke-linecap="round" stroke-width="6">
                <path d="M57,1 C34.3333333,12 17.1666667,26.6666667 5.5,45 C-12,72.5 18.7488701,71.1745582 35.7872584,55.1266761" id="Path"></path>
                <line x1="56.875" y1="1.5625" x2="46.125" y2="17.6875" id="Path-2"></line>
                <line x1="57" y1="0.9375" x2="37" y2="0.8125" id="Path-2"></line>
            </g>
            <g id="Group" transform="translate(132.500000, 33.500000) scale(-1, -1) translate(-132.500000, -33.500000) translate(104.000000, 0.000000)" stroke="#20333B" stroke-linecap="round" stroke-width="6">
                <path d="M57,1 C34.3333333,12 17.1666667,26.6666667 5.5,45 C-12,72.5 18.7488701,71.1745582 35.7872584,55.1266761" id="Path"></path>
                <line x1="56.875" y1="1.5625" x2="46.125" y2="17.6875" id="Path-2"></line>
                <line x1="57" y1="0.9375" x2="37" y2="0.8125" id="Path-2"></line>
            </g>
            <path d="M37.99,158 C42.3766667,158 44.57,155.946667 44.57,151.84 L44.57,151.84 L44.57,139.24 C44.57,135.133333 42.4233333,133.08 38.13,133.08 L38.13,133.08 L33.02,133.08 C32.18,133.08 31.62,132.951667 31.34,132.695 C31.06,132.438333 30.92,131.89 30.92,131.05 L30.92,131.05 L30.92,121.32 C30.92,120.48 31.06,119.931667 31.34,119.675 C31.62,119.418333 32.18,119.29 33.02,119.29 L33.02,119.29 L35.96,119.29 C36.8,119.29 37.36,119.418333 37.64,119.675 C37.92,119.931667 38.06,120.48 38.06,121.32 L38.06,121.32 L38.06,126.78 L44.43,126.78 L44.43,120.34 C44.43,116.233333 42.26,114.18 37.92,114.18 L37.92,114.18 L31.06,114.18 C26.72,114.18 24.55,116.233333 24.55,120.34 L24.55,120.34 L24.55,131.89 C24.55,136.043333 26.6733333,138.12 30.92,138.12 L30.92,138.12 L36.1,138.12 C36.94,138.12 37.4883333,138.248333 37.745,138.505 C38.0016667,138.761667 38.13,139.31 38.13,140.15 L38.13,140.15 L38.13,150.86 C38.13,151.7 38.0016667,152.248333 37.745,152.505 C37.4883333,152.761667 36.94,152.89 36.1,152.89 L36.1,152.89 L33.16,152.89 C32.32,152.89 31.76,152.761667 31.48,152.505 C31.2,152.248333 31.06,151.7 31.06,150.86 L31.06,150.86 L31.06,145.4 L24.69,145.4 L24.69,151.84 C24.69,155.946667 26.86,158 31.2,158 L31.2,158 L37.99,158 Z M63.61,158 L68.44,125.1 L73.34,158 L82.09,158 L89.09,114.18 L82.72,114.18 L77.61,152.26 L71.94,114.18 L64.94,114.18 L59.27,152.26 L54.37,114.18 L47.86,114.18 L54.86,158 L63.61,158 Z M96.93,158 L98.54,147.85 L107.78,147.85 L109.53,158 L115.9,158 L107.57,114.18 L98.4,114.18 L90.63,158 L96.93,158 Z M106.94,142.74 L99.31,142.74 L102.95,119.64 L106.94,142.74 Z M126.68,158 L126.68,141.06 L134.73,141.06 C139.07,141.06 141.24,139.006667 141.24,134.9 L141.24,134.9 L141.24,120.34 C141.24,116.233333 139.07,114.18 134.73,114.18 L134.73,114.18 L120.38,114.18 L120.38,158 L126.68,158 Z M132.84,136.02 L126.68,136.02 L126.68,119.29 L132.84,119.29 C133.68,119.29 134.24,119.418333 134.52,119.675 C134.8,119.931667 134.94,120.48 134.94,121.32 L134.94,121.32 L134.94,133.92 C134.94,134.76 134.8,135.32 134.52,135.6 C134.24,135.88 133.68,136.02 132.84,136.02 L132.84,136.02 Z M164.2,158 L164.2,152.89 L150.2,152.89 L164.55,119.22 L164.55,114.11 L144.53,114.11 L144.53,119.22 L158.11,119.22 L143.76,152.89 L143.76,158 L164.2,158 Z" fill="#20333B" fill-rule="nonzero"></path>
        </g>
    </g>
</svg>