<?xml version="1.0" encoding="UTF-8"?>
<svg width="500px" height="150px" viewBox="0 0 500 150" version="1.1" xmlns="http://www.w3.org/2000/svg" xmlns:xlink="http://www.w3.org/1999/xlink">
    <!-- Generator: Sketch 63.1 (92452) - https://sketch.com -->
    <title>SWAPZHorizontalWhite</title>
    <desc>Created with Sketch.</desc>
    <g id="Page-1" stroke="none" stroke-width="1" fill="none" fill-rule="evenodd">
        <g id="SWAPZ" transform="translate(44.000000, 26.000000)">
            <path d="M66.5,2 C92.1812409,2 113,22.8187591 113,48.5 C113,74.1812409 92.1812409,95 66.5,95 C40.8187591,95 20,74.1812409 20,48.5 C20,22.8187591 40.8187591,2 66.5,2 Z M66.5,15 C47.9984609,15 33,29.9984609 33,48.5 C33,67.0015391 47.9984609,82 66.5,82 C85.0015391,82 100,67.0015391 100,48.5 C100,29.9984609 85.0015391,15 66.5,15 Z" id="Combined-Shape" fill="#458DCC"></path>
            <circle id="Oval" stroke="#FFFFFF" stroke-width="6" cx="66.5" cy="48.5" r="48.5"></circle>
            <g id="Group" transform="translate(0.000000, 31.000000)" stroke="#FFFFFF" stroke-linecap="round" stroke-width="6">
                <path d="M57,1 C34.3333333,12 17.1666667,26.6666667 5.5,45 C-12,72.5 18.7488701,71.1745582 35.7872584,55.1266761" id="Path"></path>
                <line x1="56.875" y1="1.5625" x2="46.125" y2="17.6875" id="Path-2"></line>
                <line x1="57" y1="0.9375" x2="37" y2="0.8125" id="Path-2"></line>
            </g>
            <g id="Group" transform="translate(105.500000, 33.500000) scale(-1, -1) translate(-105.500000, -33.500000) translate(77.000000, 0.000000)" stroke="#FFFFFF" stroke-linecap="round" stroke-width="6">
                <path d="M57,1 C34.3333333,12 17.1666667,26.6666667 5.5,45 C-12,72.5 18.7488701,71.1745582 35.7872584,55.1266761" id="Path"></path>
                <line x1="56.875" y1="1.5625" x2="46.125" y2="17.6875" id="Path-2"></line>
                <line x1="57" y1="0.9375" x2="37" y2="0.8125" id="Path-2"></line>
            </g>
            <path d="M174.839161,90 C182.946387,90 187,86.1576145 187,78.4728435 L187,78.4728435 L187,54.8945687 C187,47.2097977 183.032634,43.3674121 175.097902,43.3674121 L175.097902,43.3674121 L165.653846,43.3674121 C164.101399,43.3674121 163.066434,43.127263 162.548951,42.6469649 C162.031469,42.1666667 161.772727,41.1405751 161.772727,39.5686901 L161.772727,39.5686901 L161.772727,21.3610224 C161.772727,19.7891374 162.031469,18.7630458 162.548951,18.2827476 C163.066434,17.8024494 164.101399,17.5623003 165.653846,17.5623003 L165.653846,17.5623003 L171.087413,17.5623003 C172.63986,17.5623003 173.674825,17.8024494 174.192308,18.2827476 C174.70979,18.7630458 174.968531,19.7891374 174.968531,21.3610224 L174.968531,21.3610224 L174.968531,31.5782748 L186.741259,31.5782748 L186.741259,19.5271565 C186.741259,11.8423855 182.730769,8 174.70979,8 L174.70979,8 L162.031469,8 C154.01049,8 150,11.8423855 150,19.5271565 L150,19.5271565 L150,41.1405751 C150,48.9126731 153.924242,52.798722 161.772727,52.798722 L161.772727,52.798722 L171.346154,52.798722 C172.898601,52.798722 173.912005,53.0388711 174.386364,53.5191693 C174.860723,53.9994675 175.097902,55.0255591 175.097902,56.5974441 L175.097902,56.5974441 L175.097902,76.6389776 C175.097902,78.2108626 174.860723,79.2369542 174.386364,79.7172524 C173.912005,80.1975506 172.898601,80.4376997 171.346154,80.4376997 L171.346154,80.4376997 L165.912587,80.4376997 C164.36014,80.4376997 163.325175,80.1975506 162.807692,79.7172524 C162.29021,79.2369542 162.031469,78.2108626 162.031469,76.6389776 L162.031469,76.6389776 L162.031469,66.4217252 L150.258741,66.4217252 L150.258741,78.4728435 C150.258741,86.1576145 154.269231,90 162.29021,90 L162.29021,90 L174.839161,90 Z M223.414261,90 L232.434635,28.4345048 L241.585739,90 L257.926995,90 L271,8 L259.103565,8 L249.560272,79.2587859 L238.971138,8 L225.898132,8 L215.308998,79.2587859 L206.157895,8 L194,8 L207.073005,90 L223.414261,90 Z M285.717452,90 L288.711911,71.0063898 L305.897507,71.0063898 L309.152355,90 L321,90 L305.506925,8 L288.451524,8 L274,90 L285.717452,90 Z M304,61 L290,61 L296.678899,18 L304,61 Z M340.778523,90 L340.778523,58.3003195 L355.828859,58.3003195 C363.942953,58.3003195 368,54.457934 368,46.7731629 L368,46.7731629 L368,19.5271565 C368,11.8423855 363.942953,8 355.828859,8 L355.828859,8 L329,8 L329,90 L340.778523,90 Z M352.186441,49 L341,49 L341,18 L352.186441,18 C353.711864,18 354.728814,18.2377964 355.237288,18.7133891 C355.745763,19.1889819 356,20.2050209 356,21.7615063 L356,21.7615063 L356,45.1087866 C356,46.665272 355.745763,47.7029289 355.237288,48.2217573 C354.728814,48.7405858 353.711864,49 352.186441,49 L352.186441,49 Z M411.343434,90 L411.343434,80.4529506 L385.080808,80.4529506 L412,17.5470494 L412,8 L374.444444,8 L374.444444,17.5470494 L399.919192,17.5470494 L373,80.4529506 L373,90 L411.343434,90 Z" fill="#FFFFFF" fill-rule="nonzero"></path>
        </g>
    </g>
</svg>